{
  "asset": {
    "generator": "gltfeditor.com",
    "version": "2.0"
  },
  "buffers": [
    {
      "uri": "data:application/octet-stream;base64,",
      "byteLength": 308888
    }
  ],
  "bufferViews": [
    {
      "buffer": 0,
      "byteOffset": 23764,
      "byteLength": 285120,
      "target": 34962,
      "byteStride": 24
    },
    {
      "buffer": 0,
      "byteOffset": 0,
      "byteLength": 23760,
      "target": 34963
    }
  ],
  "accessors": [
    {
      "bufferView": 0,
      "byteOffset": 0,
      "componentType": 5126,
      "normalized": false,
      "count": 9296,
      "max": [
        18.75,
        75.80000305175781,
        12.024998664855957
      ],
      "min": [
        -18.750009536743164,
        0.1999962329864502,
        -11.25001049041748
      ],
      "type": "VEC3"
    },
    {
      "bufferView": 0,
      "byteOffset": 12,
      "componentType": 5126,
      "normalized": false,
      "count": 9296,
      "max": [
        1,
        0.9998385310173035,
        0.9999999403953552
      ],
      "min": [
        -1,
        -0.9974151849746704,
        -1
      ],
      "type": "VEC3"
    },
    {
      "bufferView": 1,
      "byteOffset": 0,
      "componentType": 5123,
      "normalized": false,
      "count": 11880,
      "max": [
        9295
      ],
      "min": [
        0
      ],
      "type": "SCALAR"
    }
  ],
  "scene": 0,
  "scenes": [
    {
      "nodes": [
        0
      ],
      "name": "mainlockers"
    }
  ],
  "nodes": [
    {
      "name": "3DSMesh_0",
      "mesh": 0
    }
  ],
  "meshes": [
    {
      "primitives": [
        {
          "attributes": {
            "POSITION": 0,
            "NORMAL": 1
          },
          "material": 0,
          "mode": 4,
          "indices": 2
        }
      ]
    }
  ],
  "materials": [
    {
      "pbrMetallicRoughness": {
        "baseColorFactor": [
          0.6392156862745098,
          0.6392156862745098,
          0.6392156862745098,
          1
        ],
        "metallicFactor": 0,
        "roughnessFactor": 0
      },
      "emissiveFactor": [
        0,
        0,
        0
      ],
      "alphaMode": "OPAQUE",
      "doubleSided": false
    }
  ]
}